#tb 0: 1/25
0,          0,          0,        1,   518400, 0xfbca00c6
0,          1,          1,        1,   518400, 0x82b80adf
0,          2,          2,        1,   518400, 0x87ecdf4a
0,          3,          3,        1,   518400, 0xf6ca8cbe
0,          4,          4,        1,   518400, 0x8e9bb8a0
0,          5,          5,        1,   518400, 0x6512caa2
0,          6,          6,        1,   518400, 0xc015e43e
0,          7,          7,        1,   518400, 0x5f504a5c
0,          8,          8,        1,   518400, 0x4c7458a4
0,          9,          9,        1,   518400, 0x630f4004
0,         10,         10,        1,   518400, 0x889af20e
0,         11,         11,        1,   518400, 0x4437a5a4
0,         12,         12,        1,   518400, 0x1e19a254
0,         13,         13,        1,   518400, 0xb7ef1763
0,         14,         14,        1,   518400, 0xc966c95a
0,         15,         15,        1,   518400, 0x0c9074d6
0,         16,         16,        1,   518400, 0x24c906c9
